# xmcd CD database file
#
# Track frame offsets:
#	150
#	17689
#	28325
#	45167
#	65445
#	73713
#	82250
#	98069
#	118835
#	132162
#	145945
#	172939
#	185736
#
# Disc length: 2803 seconds
#
# Revision: 0
# Processed by: cddbd v1.5.1PL0 Copyright (c) Steve Scherf et al.
# Submitted via: CDex 1.51
#
DISCID=b60af10d
DTITLE=Vidar Busk, Kid Andersen, Junior Watson - Guitarmageddon
DYEAR=2005
DGENRE=Blues
TTITLE0=Stompin' Our Feet With Joy
TTITLE1=Caveman Rock
TTITLE2=Guitarmageddon
TTITLE3=Annabelle
TTITLE4=Letter To Kedar
TTITLE5=Like It This Way
TTITLE6=Wolf Pack
TTITLE7=Get Back
TTITLE8=No Money
TTITLE9=In The Støt
TTITLE10=Let's Drink... Another Bottle Of The Blues
TTITLE11=Off The Record
TTITLE12=Let's Drink... Some More
EXTD=YEAR: 2005
EXTT0=
EXTT1=
EXTT2=
EXTT3=
EXTT4=
EXTT5=
EXTT6=
EXTT7=
EXTT8=
EXTT9=
EXTT10=
EXTT11=
EXTT12=
PLAYORDER=
